<?xml version="1.0" encoding="UTF-8" standalone="no"?>
<!DOCTYPE svg PUBLIC "-//W3C//DTD SVG 1.1//EN"
 "http://www.w3.org/Graphics/SVG/1.1/DTD/svg11.dtd">
<!-- Generated by graphviz version 2.36.0 (20140111.2315)
 -->
<!-- Title: gnull Pages: 1 -->
<svg width="874pt" height="439pt"
 viewBox="0.00 0.00 874.00 439.00" xmlns="http://www.w3.org/2000/svg" xmlns:xlink="http://www.w3.org/1999/xlink">
<g id="graph0" class="graph" transform="scale(1 1) rotate(0) translate(4 435)">
<title>gnull</title>
<polygon fill="white" stroke="none" points="-4,4 -4,-435 870,-435 870,4 -4,4"/>
<text text-anchor="middle" x="87" y="-415.8" font-family="Times New Roman,serif" font-size="14.00">Graph of Ontology File: null</text>
<!-- n1 -->
<g id="node1" class="node"><title>n1</title>
<ellipse fill="blue" stroke="black" cx="306" cy="-214" rx="51.0191" ry="18"/>
<text text-anchor="middle" x="306" y="-210.3" font-family="Times New Roman,serif" font-size="14.00" fill="white">ASTParser</text>
</g>
<!-- n2 -->
<g id="node2" class="node"><title>n2</title>
<polygon fill="#00008b" stroke="black" points="427.25,-124 356.75,-124 356.75,-88 427.25,-88 427.25,-124"/>
<text text-anchor="middle" x="392" y="-102.3" font-family="Times New Roman,serif" font-size="14.00" fill="white">JavaClass</text>
</g>
<!-- n1&#45;&gt;n2 -->
<g id="edge1" class="edge"><title>n1&#45;&gt;n2</title>
<path fill="none" stroke="black" d="M323.309,-196.795C329.141,-191.052 335.548,-184.418 341,-178 353.17,-163.672 365.503,-146.587 374.992,-132.768"/>
<polygon fill="black" stroke="black" points="378.073,-134.461 380.787,-124.22 372.278,-130.533 378.073,-134.461"/>
<text text-anchor="middle" x="378.5" y="-156.3" font-family="Times New Roman,serif" font-size="14.00">is a</text>
</g>
<!-- n3 -->
<g id="node3" class="node"><title>n3</title>
<ellipse fill="blue" stroke="black" cx="780" cy="-302" rx="86.1637" ry="18"/>
<text text-anchor="middle" x="780" y="-298.3" font-family="Times New Roman,serif" font-size="14.00" fill="white">SadlModelGenerator</text>
</g>
<!-- n3&#45;&gt;n2 -->
<g id="edge4" class="edge"><title>n3&#45;&gt;n2</title>
<path fill="none" stroke="black" d="M753.61,-284.854C735.629,-272.522 712.688,-253.943 699,-232 677.15,-196.971 707.506,-168.68 676,-142 639.919,-111.445 510.69,-131.453 464,-124 455.246,-122.603 445.978,-120.723 437.11,-118.723"/>
<polygon fill="black" stroke="black" points="437.851,-115.302 427.316,-116.432 436.257,-122.118 437.851,-115.302"/>
<text text-anchor="middle" x="708.5" y="-210.3" font-family="Times New Roman,serif" font-size="14.00">is a</text>
</g>
<!-- n4 -->
<g id="node4" class="node"><title>n4</title>
<ellipse fill="blue" stroke="black" cx="754" cy="-214" rx="27" ry="18"/>
<text text-anchor="middle" x="754" y="-210.3" font-family="Times New Roman,serif" font-size="14.00" fill="white">&lt;1&gt;</text>
</g>
<!-- n3&#45;&gt;n4 -->
<g id="edge2" class="edge"><title>n3&#45;&gt;n4</title>
<path fill="none" stroke="#00cd00" d="M767.705,-283.933C764.332,-278.452 761.045,-272.19 759,-266 756.544,-258.566 755.186,-250.217 754.461,-242.46"/>
<polygon fill="#00cd00" stroke="#00cd00" points="757.948,-242.148 753.821,-232.39 750.962,-242.592 757.948,-242.148"/>
<text text-anchor="middle" x="773" y="-254.3" font-family="Times New Roman,serif" font-size="14.00">input</text>
</g>
<!-- n5 -->
<g id="node5" class="node"><title>n5</title>
<ellipse fill="blue" stroke="black" cx="799" cy="-160" rx="27" ry="18"/>
<text text-anchor="middle" x="799" y="-156.3" font-family="Times New Roman,serif" font-size="14.00" fill="white">&lt;2&gt;</text>
</g>
<!-- n3&#45;&gt;n5 -->
<g id="edge3" class="edge"><title>n3&#45;&gt;n5</title>
<path fill="none" stroke="#00cd00" d="M783.705,-283.961C784.863,-278.268 786.078,-271.877 787,-266 791.116,-239.76 794.414,-209.62 796.503,-188.382"/>
<polygon fill="#00cd00" stroke="#00cd00" points="800.014,-188.443 797.484,-178.155 793.045,-187.775 800.014,-188.443"/>
<text text-anchor="middle" x="808.5" y="-254.3" font-family="Times New Roman,serif" font-size="14.00">output</text>
</g>
<!-- n16 -->
<g id="node16" class="node"><title>n16</title>
<polygon fill="#00008b" stroke="black" points="622.25,-124 473.75,-124 473.75,-88 622.25,-88 622.25,-124"/>
<text text-anchor="middle" x="548" y="-102.3" font-family="Times New Roman,serif" font-size="14.00" fill="white">LanguageNeutralExtract</text>
</g>
<!-- n4&#45;&gt;n16 -->
<g id="edge16" class="edge"><title>n4&#45;&gt;n16</title>
<path fill="none" stroke="black" d="M746.792,-196.495C738.756,-180.09 724.183,-155.484 704,-142 691.662,-133.757 662.421,-126.295 632.546,-120.399"/>
<polygon fill="black" stroke="black" points="632.894,-116.902 622.414,-118.46 631.578,-123.777 632.894,-116.902"/>
<text text-anchor="middle" x="745.5" y="-156.3" font-family="Times New Roman,serif" font-size="14.00">is a</text>
</g>
<!-- n15 -->
<g id="node15" class="node"><title>n15</title>
<polygon fill="#00008b" stroke="black" points="785.25,-36 708.75,-36 708.75,-0 785.25,-0 785.25,-36"/>
<text text-anchor="middle" x="747" y="-14.3" font-family="Times New Roman,serif" font-size="14.00" fill="white">SadlModel</text>
</g>
<!-- n5&#45;&gt;n15 -->
<g id="edge14" class="edge"><title>n5&#45;&gt;n15</title>
<path fill="none" stroke="black" d="M796.312,-142.027C792.533,-120.748 784.552,-83.4844 771,-54 769.54,-50.8243 767.798,-47.6238 765.927,-44.5166"/>
<polygon fill="black" stroke="black" points="768.837,-42.5713 760.444,-36.1053 762.973,-46.3939 768.837,-42.5713"/>
<text text-anchor="middle" x="802.5" y="-102.3" font-family="Times New Roman,serif" font-size="14.00">is a</text>
</g>
<!-- n6 -->
<g id="node6" class="node"><title>n6</title>
<ellipse fill="blue" stroke="black" cx="83" cy="-214" rx="27" ry="18"/>
<text text-anchor="middle" x="83" y="-210.3" font-family="Times New Roman,serif" font-size="14.00" fill="white">&lt;3&gt;</text>
</g>
<!-- n7 -->
<g id="node7" class="node"><title>n7</title>
<polygon fill="#00008b" stroke="black" points="224.25,-124 113.75,-124 113.75,-88 224.25,-88 224.25,-124"/>
<text text-anchor="middle" x="169" y="-102.3" font-family="Times New Roman,serif" font-size="14.00" fill="white">JavaSourceCode</text>
</g>
<!-- n6&#45;&gt;n7 -->
<g id="edge5" class="edge"><title>n6&#45;&gt;n7</title>
<path fill="none" stroke="black" d="M87.0405,-195.936C91.384,-180.482 99.5432,-157.784 113,-142 116.673,-137.692 121.012,-133.744 125.624,-130.177"/>
<polygon fill="black" stroke="black" points="127.981,-132.798 134.135,-124.173 123.946,-127.078 127.981,-132.798"/>
<text text-anchor="middle" x="122.5" y="-156.3" font-family="Times New Roman,serif" font-size="14.00">is a</text>
</g>
<!-- n8 -->
<g id="node8" class="node"><title>n8</title>
<polygon fill="#00008b" stroke="black" points="639,-232 585,-232 585,-196 639,-196 639,-232"/>
<text text-anchor="middle" x="612" y="-210.3" font-family="Times New Roman,serif" font-size="14.00" fill="white">Data</text>
</g>
<!-- n8&#45;&gt;n7 -->
<g id="edge8" class="edge"><title>n8&#45;&gt;n7</title>
<path fill="none" stroke="blue" stroke-dasharray="5,2" d="M584.629,-200.167C580.156,-198.504 575.508,-197.025 571,-196 498.953,-179.616 306.364,-208.352 239,-178 217.228,-168.19 198.594,-148.335 186.038,-132.11"/>
<polygon fill="blue" stroke="blue" points="188.811,-129.974 180.041,-124.029 183.19,-134.145 188.811,-129.974"/>
<text text-anchor="middle" x="265" y="-156.3" font-family="Times New Roman,serif" font-size="14.00">subClass</text>
</g>
<!-- n9 -->
<g id="node9" class="node"><title>n9</title>
<polygon fill="#00008b" stroke="black" points="735.25,-124 666.75,-124 666.75,-88 735.25,-88 735.25,-124"/>
<text text-anchor="middle" x="701" y="-102.3" font-family="Times New Roman,serif" font-size="14.00" fill="white">Ontology</text>
</g>
<!-- n8&#45;&gt;n9 -->
<g id="edge6" class="edge"><title>n8&#45;&gt;n9</title>
<path fill="none" stroke="blue" stroke-dasharray="5,2" d="M623.168,-195.992C633.188,-181.183 648.64,-159.419 664,-142 667.195,-138.377 670.71,-134.707 674.265,-131.174"/>
<polygon fill="blue" stroke="blue" points="676.755,-133.636 681.525,-124.176 671.896,-128.596 676.755,-133.636"/>
<text text-anchor="middle" x="690" y="-156.3" font-family="Times New Roman,serif" font-size="14.00">subClass</text>
</g>
<!-- n8&#45;&gt;n16 -->
<g id="edge21" class="edge"><title>n8&#45;&gt;n16</title>
<path fill="none" stroke="blue" stroke-dasharray="5,2" d="M584.959,-201.309C569.855,-194.172 553.238,-185.088 549,-178 541.236,-165.016 540.686,-148.164 542.218,-134.137"/>
<polygon fill="blue" stroke="blue" points="545.706,-134.477 543.71,-124.072 538.781,-133.451 545.706,-134.477"/>
<text text-anchor="middle" x="575" y="-156.3" font-family="Times New Roman,serif" font-size="14.00">subClass</text>
</g>
<!-- n9&#45;&gt;n15 -->
<g id="edge15" class="edge"><title>n9&#45;&gt;n15</title>
<path fill="none" stroke="blue" stroke-dasharray="5,2" d="M705.482,-87.8525C708.524,-77.6555 713.073,-64.6707 719,-54 720.807,-50.7475 722.915,-47.489 725.15,-44.3403"/>
<polygon fill="blue" stroke="blue" points="727.967,-46.4182 731.238,-36.3412 722.397,-42.1784 727.967,-46.4182"/>
<text text-anchor="middle" x="745" y="-58.3" font-family="Times New Roman,serif" font-size="14.00">subClass</text>
</g>
<!-- n10 -->
<g id="node10" class="node"><title>n10</title>
<polygon fill="#00008b" stroke="black" points="568.25,-320 501.75,-320 501.75,-284 568.25,-284 568.25,-320"/>
<text text-anchor="middle" x="535" y="-298.3" font-family="Times New Roman,serif" font-size="14.00" fill="white">Software</text>
</g>
<!-- n10&#45;&gt;n2 -->
<g id="edge23" class="edge"><title>n10&#45;&gt;n2</title>
<path fill="none" stroke="blue" stroke-dasharray="5,2" d="M529.463,-283.817C525.804,-273.608 520.49,-260.622 514,-250 486.006,-204.182 443.602,-158.191 416.873,-131.174"/>
<polygon fill="blue" stroke="blue" points="419.32,-128.671 409.775,-124.073 414.37,-133.62 419.32,-128.671"/>
<text text-anchor="middle" x="528" y="-210.3" font-family="Times New Roman,serif" font-size="14.00">subClass</text>
</g>
<!-- n10&#45;&gt;n8 -->
<g id="edge26" class="edge"><title>n10&#45;&gt;n8</title>
<path fill="none" stroke="#00cd00" d="M568.344,-284.263C576.175,-279.194 583.981,-273.064 590,-266 596.023,-258.931 600.628,-249.962 604.03,-241.524"/>
<polygon fill="#00cd00" stroke="#00cd00" points="607.362,-242.601 607.482,-232.007 600.782,-240.214 607.362,-242.601"/>
<text text-anchor="middle" x="618.5" y="-254.3" font-family="Times New Roman,serif" font-size="14.00">output</text>
</g>
<!-- n10&#45;&gt;n8 -->
<g id="edge27" class="edge"><title>n10&#45;&gt;n8</title>
<path fill="none" stroke="#00cd00" d="M540.081,-283.54C543.792,-272.981 549.646,-259.726 558,-250 563.221,-243.922 569.755,-238.503 576.456,-233.85"/>
<polygon fill="#00cd00" stroke="#00cd00" points="578.44,-236.735 584.948,-228.374 574.647,-230.852 578.44,-236.735"/>
<text text-anchor="middle" x="572" y="-254.3" font-family="Times New Roman,serif" font-size="14.00">input</text>
</g>
<!-- n10&#45;&gt;n10 -->
<g id="edge24" class="edge"><title>n10&#45;&gt;n10</title>
<path fill="none" stroke="#00cd00" d="M568.354,-306.116C578.278,-305.993 586,-304.621 586,-302 586,-300.403 583.133,-299.269 578.647,-298.6"/>
<polygon fill="#00cd00" stroke="#00cd00" points="578.573,-295.086 568.354,-297.884 578.088,-302.069 578.573,-295.086"/>
<text text-anchor="middle" x="609" y="-298.3" font-family="Times New Roman,serif" font-size="14.00">includes</text>
</g>
<!-- n10&#45;&gt;n10 -->
<g id="edge25" class="edge"><title>n10&#45;&gt;n10</title>
<path fill="none" stroke="#00cd00" d="M568.44,-309.161C597.617,-311.885 632,-309.498 632,-302 632,-295.351 604.966,-292.721 578.499,-294.11"/>
<polygon fill="#00cd00" stroke="#00cd00" points="578.161,-290.625 568.44,-294.839 578.667,-297.607 578.161,-290.625"/>
<text text-anchor="middle" x="644.5" y="-298.3" font-family="Times New Roman,serif" font-size="14.00">uses</text>
</g>
<!-- n11 -->
<g id="node11" class="node"><title>n11</title>
<polygon fill="#00008b" stroke="black" points="455,-232 401,-232 401,-196 455,-196 455,-232"/>
<text text-anchor="middle" x="428" y="-210.3" font-family="Times New Roman,serif" font-size="14.00" fill="white">Plugin</text>
</g>
<!-- n10&#45;&gt;n11 -->
<g id="edge7" class="edge"><title>n10&#45;&gt;n11</title>
<path fill="none" stroke="blue" stroke-dasharray="5,2" d="M501.508,-289.41C488.246,-283.735 473.463,-275.951 462,-266 454.008,-259.062 447.095,-249.818 441.627,-241.106"/>
<polygon fill="blue" stroke="blue" points="444.557,-239.183 436.469,-232.339 438.524,-242.733 444.557,-239.183"/>
<text text-anchor="middle" x="488" y="-254.3" font-family="Times New Roman,serif" font-size="14.00">subClass</text>
</g>
<!-- n12 -->
<g id="node12" class="node"><title>n12</title>
<ellipse fill="blue" stroke="black" cx="306" cy="-302" rx="122.284" ry="18"/>
<text text-anchor="middle" x="306" y="-298.3" font-family="Times New Roman,serif" font-size="14.00" fill="white">EclipseJavaDevelopmentTools</text>
</g>
<!-- n12&#45;&gt;n1 -->
<g id="edge9" class="edge"><title>n12&#45;&gt;n1</title>
<path fill="none" stroke="#00cd00" d="M306,-283.597C306,-271.746 306,-255.817 306,-242.292"/>
<polygon fill="#00cd00" stroke="#00cd00" points="309.5,-242.084 306,-232.084 302.5,-242.084 309.5,-242.084"/>
<text text-anchor="middle" x="329" y="-254.3" font-family="Times New Roman,serif" font-size="14.00">includes</text>
</g>
<!-- n12&#45;&gt;n11 -->
<g id="edge10" class="edge"><title>n12&#45;&gt;n11</title>
<path fill="none" stroke="black" d="M329.926,-284.292C338.192,-278.509 347.51,-271.979 356,-266 369.026,-256.828 383.351,-246.691 395.77,-237.887"/>
<polygon fill="black" stroke="black" points="397.892,-240.673 404.024,-232.033 393.842,-234.964 397.892,-240.673"/>
<text text-anchor="middle" x="387.5" y="-254.3" font-family="Times New Roman,serif" font-size="14.00">is a</text>
</g>
<!-- n13 -->
<g id="node13" class="node"><title>n13</title>
<ellipse fill="blue" stroke="black" cx="464" cy="-390" rx="130.933" ry="18"/>
<text text-anchor="middle" x="464" y="-386.3" font-family="Times New Roman,serif" font-size="14.00" fill="white">AnswerJavaCodeModelExtractor</text>
</g>
<!-- n13&#45;&gt;n3 -->
<g id="edge12" class="edge"><title>n13&#45;&gt;n3</title>
<path fill="none" stroke="#00cd00" d="M520.13,-373.724C576.379,-358.416 662.655,-334.936 720.176,-319.281"/>
<polygon fill="#00cd00" stroke="#00cd00" points="721.129,-322.649 729.859,-316.646 719.291,-315.895 721.129,-322.649"/>
<text text-anchor="middle" x="674" y="-342.3" font-family="Times New Roman,serif" font-size="14.00">includes</text>
</g>
<!-- n13&#45;&gt;n11 -->
<g id="edge13" class="edge"><title>n13&#45;&gt;n11</title>
<path fill="none" stroke="black" d="M460.483,-371.999C454.219,-341.723 441.085,-278.245 433.578,-241.962"/>
<polygon fill="black" stroke="black" points="436.985,-241.153 431.532,-232.07 430.13,-242.571 436.985,-241.153"/>
<text text-anchor="middle" x="459.5" y="-298.3" font-family="Times New Roman,serif" font-size="14.00">is a</text>
</g>
<!-- n14 -->
<g id="node14" class="node"><title>n14</title>
<ellipse fill="blue" stroke="black" cx="83" cy="-302" rx="83.2892" ry="18"/>
<text text-anchor="middle" x="83" y="-298.3" font-family="Times New Roman,serif" font-size="14.00" fill="white">JavaModelExtractor</text>
</g>
<!-- n13&#45;&gt;n14 -->
<g id="edge11" class="edge"><title>n13&#45;&gt;n14</title>
<path fill="none" stroke="#00cd00" d="M398.937,-374.314C328.948,-358.516 218.295,-333.539 148.238,-317.726"/>
<polygon fill="#00cd00" stroke="#00cd00" points="148.731,-314.249 138.206,-315.461 147.19,-321.077 148.731,-314.249"/>
<text text-anchor="middle" x="331" y="-342.3" font-family="Times New Roman,serif" font-size="14.00">includes</text>
</g>
<!-- n14&#45;&gt;n1 -->
<g id="edge17" class="edge"><title>n14&#45;&gt;n1</title>
<path fill="none" stroke="#00cd00" d="M143.203,-289.526C167.556,-283.888 195.619,-276.099 220,-266 239.35,-257.985 259.564,-246.196 275.529,-235.971"/>
<polygon fill="#00cd00" stroke="#00cd00" points="277.47,-238.884 283.929,-230.486 273.642,-233.023 277.47,-238.884"/>
<text text-anchor="middle" x="264.5" y="-254.3" font-family="Times New Roman,serif" font-size="14.00">uses</text>
</g>
<!-- n14&#45;&gt;n2 -->
<g id="edge20" class="edge"><title>n14&#45;&gt;n2</title>
<path fill="none" stroke="black" d="M99.7482,-284.205C104.916,-278.634 110.441,-272.254 115,-266 153.214,-213.578 137.442,-177.098 192,-142 216.961,-125.942 295.625,-115.865 346.539,-110.849"/>
<polygon fill="black" stroke="black" points="347.018,-114.32 356.64,-109.884 346.352,-107.351 347.018,-114.32"/>
<text text-anchor="middle" x="157.5" y="-210.3" font-family="Times New Roman,serif" font-size="14.00">is a</text>
</g>
<!-- n14&#45;&gt;n6 -->
<g id="edge18" class="edge"><title>n14&#45;&gt;n6</title>
<path fill="none" stroke="#00cd00" d="M83,-283.597C83,-271.746 83,-255.817 83,-242.292"/>
<polygon fill="#00cd00" stroke="#00cd00" points="86.5001,-242.084 83,-232.084 79.5001,-242.084 86.5001,-242.084"/>
<text text-anchor="middle" x="97" y="-254.3" font-family="Times New Roman,serif" font-size="14.00">input</text>
</g>
<!-- n17 -->
<g id="node17" class="node"><title>n17</title>
<ellipse fill="blue" stroke="black" cx="210" cy="-214" rx="27" ry="18"/>
<text text-anchor="middle" x="210" y="-210.3" font-family="Times New Roman,serif" font-size="14.00" fill="white">&lt;4&gt;</text>
</g>
<!-- n14&#45;&gt;n17 -->
<g id="edge19" class="edge"><title>n14&#45;&gt;n17</title>
<path fill="none" stroke="#00cd00" d="M122.896,-286.204C135.309,-280.741 148.694,-273.918 160,-266 171.267,-258.109 182.159,-247.48 190.884,-237.967"/>
<polygon fill="#00cd00" stroke="#00cd00" points="193.647,-240.127 197.665,-230.324 188.41,-235.482 193.647,-240.127"/>
<text text-anchor="middle" x="197.5" y="-254.3" font-family="Times New Roman,serif" font-size="14.00">output</text>
</g>
<!-- n17&#45;&gt;n16 -->
<g id="edge22" class="edge"><title>n17&#45;&gt;n16</title>
<path fill="none" stroke="black" d="M231.179,-202.615C236.014,-200.352 241.155,-198.029 246,-196 267.4,-187.038 276.918,-192.537 295,-178 309.797,-166.103 302.084,-152.352 318,-142 318.1,-141.935 398.101,-129.77 463.711,-119.801"/>
<polygon fill="black" stroke="black" points="464.328,-123.248 473.689,-118.286 463.276,-116.327 464.328,-123.248"/>
<text text-anchor="middle" x="327.5" y="-156.3" font-family="Times New Roman,serif" font-size="14.00">is a</text>
</g>
</g>
</svg>
