<?xml version="1.0" encoding="UTF-8" standalone="no"?>
<!DOCTYPE svg PUBLIC "-//W3C//DTD SVG 1.1//EN"
 "http://www.w3.org/Graphics/SVG/1.1/DTD/svg11.dtd">
<!-- Generated by graphviz version 2.36.0 (20140111.2315)
 -->
<!-- Title: gdr Pages: 1 -->
<svg width="496pt" height="547pt"
 viewBox="0.00 0.00 496.00 547.00" xmlns="http://www.w3.org/2000/svg" xmlns:xlink="http://www.w3.org/1999/xlink">
<g id="graph0" class="graph" transform="scale(1 1) rotate(0) translate(4 543)">
<title>gdr</title>
<polygon fill="white" stroke="none" points="-4,4 -4,-543 492,-543 492,4 -4,4"/>
<text text-anchor="middle" x="31.5" y="-523.8" font-family="Times New Roman,serif" font-size="14.00">Instance</text>
<!-- n1 -->
<g id="node1" class="node"><title>n1</title>
<defs>
<linearGradient id="l_0" gradientUnits="userSpaceOnUse" x1="173.608" y1="-498" x2="282.392" y2="-498" >
<stop offset="0" style="stop-color:lightblue;stop-opacity:1.;"/>
<stop offset="1" style="stop-color:blue;stop-opacity:1.;"/>
</linearGradient>
</defs>
<ellipse fill="url(#l_0)" stroke="black" cx="228" cy="-498" rx="54.3924" ry="18"/>
<text text-anchor="middle" x="228" y="-494.3" font-family="Times New Roman,serif" font-size="14.00" fill="white">SampleUser</text>
</g>
<!-- n2 -->
<g id="node2" class="node"><title>n2</title>
<ellipse fill="blue" stroke="black" cx="141" cy="-410" rx="73.1654" ry="18"/>
<text text-anchor="middle" x="141" y="-406.3" font-family="Times New Roman,serif" font-size="14.00" fill="white">CurationManager</text>
</g>
<!-- n1&#45;&gt;n2 -->
<g id="edge1" class="edge"><title>n1&#45;&gt;n2</title>
<path fill="none" stroke="#00cd00" d="M203.977,-481.534C195.956,-475.85 187.228,-469.065 180,-462 172.109,-454.287 164.488,-444.912 158.109,-436.314"/>
<polygon fill="#00cd00" stroke="#00cd00" points="160.859,-434.143 152.18,-428.066 155.175,-438.229 160.859,-434.143"/>
<text text-anchor="middle" x="219.5" y="-450.3" font-family="Times New Roman,serif" font-size="14.00">Software:uses</text>
</g>
<!-- n11 -->
<g id="node11" class="node"><title>n11</title>
<polygon fill="#00008b" stroke="black" points="375,-428 265,-428 265,-392 375,-392 375,-428"/>
<text text-anchor="middle" x="320" y="-406.3" font-family="Times New Roman,serif" font-size="14.00" fill="white">Software:Human</text>
</g>
<!-- n1&#45;&gt;n11 -->
<g id="edge13" class="edge"><title>n1&#45;&gt;n11</title>
<path fill="none" stroke="#00cd00" d="M245.304,-480.824C259.082,-467.945 278.577,-449.721 294.196,-435.121"/>
<polygon fill="#00cd00" stroke="#00cd00" points="296.595,-437.67 301.51,-428.284 291.815,-432.556 296.595,-437.67"/>
<text text-anchor="middle" x="292.5" y="-450.3" font-family="Times New Roman,serif" font-size="14.00">is a</text>
</g>
<!-- n3 -->
<g id="node3" class="node"><title>n3</title>
<polygon fill="#00008b" stroke="black" points="216,-36 16,-36 16,-0 216,-0 216,-36"/>
<text text-anchor="middle" x="116" y="-14.3" font-family="Times New Roman,serif" font-size="14.00" fill="white">Software:Plugin and Software:AI</text>
</g>
<!-- n2&#45;&gt;n3 -->
<g id="edge2" class="edge"><title>n2&#45;&gt;n3</title>
<path fill="none" stroke="#00cd00" d="M87.0241,-397.775C70.9716,-392.517 54.1725,-384.914 41,-374 12.9405,-350.752 0,-339.439 0,-303 0,-303 0,-303 0,-105 0,-74.8183 25.6545,-54.0043 52.8341,-40.4222"/>
<polygon fill="#00cd00" stroke="#00cd00" points="54.5062,-43.5039 62.0751,-36.0903 51.535,-37.1658 54.5062,-43.5039"/>
<text text-anchor="middle" x="9.5" y="-190.3" font-family="Times New Roman,serif" font-size="14.00">is a</text>
</g>
<!-- n8 -->
<g id="node8" class="node"><title>n8</title>
<ellipse fill="blue" stroke="black" cx="52" cy="-248" rx="34.1708" ry="18"/>
<text text-anchor="middle" x="52" y="-244.3" font-family="Times New Roman,serif" font-size="14.00" fill="white">Dialog</text>
</g>
<!-- n2&#45;&gt;n8 -->
<g id="edge12" class="edge"><title>n2&#45;&gt;n8</title>
<path fill="none" stroke="#00cd00" d="M88.702,-397.229C76.7725,-392.06 65.4342,-384.64 58,-374 38.0066,-345.385 40.7464,-303.45 45.5592,-276.186"/>
<polygon fill="#00cd00" stroke="#00cd00" points="49.0334,-276.659 47.5371,-266.17 42.166,-275.303 49.0334,-276.659"/>
<text text-anchor="middle" x="97.5" y="-352.3" font-family="Times New Roman,serif" font-size="14.00">Software:uses</text>
</g>
<!-- n9 -->
<g id="node9" class="node"><title>n9</title>
<ellipse fill="blue" stroke="black" cx="141" cy="-302" rx="74.6146" ry="18"/>
<text text-anchor="middle" x="141" y="-298.3" font-family="Times New Roman,serif" font-size="14.00" fill="white">KnowledgeGraph</text>
</g>
<!-- n2&#45;&gt;n9 -->
<g id="edge10" class="edge"><title>n2&#45;&gt;n9</title>
<path fill="none" stroke="#00cd00" d="M141,-391.969C141,-375.378 141,-349.883 141,-330.431"/>
<polygon fill="#00cd00" stroke="#00cd00" points="144.5,-330.341 141,-320.341 137.5,-330.341 144.5,-330.341"/>
<text text-anchor="middle" x="180.5" y="-352.3" font-family="Times New Roman,serif" font-size="14.00">Software:uses</text>
</g>
<!-- n10 -->
<g id="node10" class="node"><title>n10</title>
<ellipse fill="blue" stroke="black" cx="321" cy="-302" rx="87.1385" ry="18"/>
<text text-anchor="middle" x="321" y="-298.3" font-family="Times New Roman,serif" font-size="14.00" fill="white">ComputationalModel</text>
</g>
<!-- n2&#45;&gt;n10 -->
<g id="edge11" class="edge"><title>n2&#45;&gt;n10</title>
<path fill="none" stroke="#00cd00" d="M180.322,-394.608C194.439,-388.876 210.257,-381.786 224,-374 248.675,-360.021 274.486,-340.876 293.274,-325.99"/>
<polygon fill="#00cd00" stroke="#00cd00" points="295.516,-328.678 301.127,-319.691 291.136,-323.218 295.516,-328.678"/>
<text text-anchor="middle" x="315.5" y="-352.3" font-family="Times New Roman,serif" font-size="14.00">Software:uses</text>
</g>
<!-- n4 -->
<g id="node4" class="node"><title>n4</title>
<polygon fill="#00008b" stroke="black" points="168,-124 64,-124 64,-88 168,-88 168,-124"/>
<text text-anchor="middle" x="116" y="-102.3" font-family="Times New Roman,serif" font-size="14.00" fill="white">Software:Plugin</text>
</g>
<!-- n4&#45;&gt;n3 -->
<g id="edge3" class="edge"><title>n4&#45;&gt;n3</title>
<path fill="none" stroke="black" d="M116,-87.5966C116,-75.7459 116,-59.8169 116,-46.2917"/>
<polygon fill="black" stroke="black" points="119.5,-46.084 116,-36.084 112.5,-46.084 119.5,-46.084"/>
<text text-anchor="middle" x="142" y="-58.3" font-family="Times New Roman,serif" font-size="14.00">subClass</text>
</g>
<!-- n5 -->
<g id="node5" class="node"><title>n5</title>
<polygon fill="#00008b" stroke="black" points="212,-212 92,-212 92,-176 212,-176 212,-212"/>
<text text-anchor="middle" x="152" y="-190.3" font-family="Times New Roman,serif" font-size="14.00" fill="white">Software:Software</text>
</g>
<!-- n5&#45;&gt;n4 -->
<g id="edge4" class="edge"><title>n5&#45;&gt;n4</title>
<path fill="none" stroke="blue" stroke-dasharray="5,2" d="M144.715,-175.597C139.656,-163.511 132.821,-147.184 127.089,-133.491"/>
<polygon fill="blue" stroke="blue" points="130.241,-131.957 123.151,-124.084 123.784,-134.66 130.241,-131.957"/>
<text text-anchor="middle" x="164" y="-146.3" font-family="Times New Roman,serif" font-size="14.00">subClass</text>
</g>
<!-- n6 -->
<g id="node6" class="node"><title>n6</title>
<polygon fill="#00008b" stroke="black" points="469,-374 385,-374 385,-338 469,-338 469,-374"/>
<text text-anchor="middle" x="427" y="-352.3" font-family="Times New Roman,serif" font-size="14.00" fill="white">Software:AI</text>
</g>
<!-- n6&#45;&gt;n3 -->
<g id="edge5" class="edge"><title>n6&#45;&gt;n3</title>
<path fill="none" stroke="black" d="M429.365,-337.78C432.031,-316.839 436,-280.397 436,-249 436,-249 436,-249 436,-105 436,-60.4577 318.906,-38.3347 226.381,-27.8065"/>
<polygon fill="black" stroke="black" points="226.696,-24.3201 216.372,-26.7013 225.927,-31.2778 226.696,-24.3201"/>
<text text-anchor="middle" x="462" y="-190.3" font-family="Times New Roman,serif" font-size="14.00">subClass</text>
</g>
<!-- n7 -->
<g id="node7" class="node"><title>n7</title>
<polygon fill="#00008b" stroke="black" points="414.25,-516 311.75,-516 311.75,-480 414.25,-480 414.25,-516"/>
<text text-anchor="middle" x="363" y="-494.3" font-family="Times New Roman,serif" font-size="14.00" fill="white">Software:Agent</text>
</g>
<!-- n7&#45;&gt;n6 -->
<g id="edge6" class="edge"><title>n7&#45;&gt;n6</title>
<path fill="none" stroke="blue" stroke-dasharray="5,2" d="M382.885,-479.9C388.082,-474.604 393.266,-468.452 397,-462 411.118,-437.604 418.956,-406.131 423.047,-384.028"/>
<polygon fill="blue" stroke="blue" points="426.525,-384.45 424.765,-374.003 419.626,-383.268 426.525,-384.45"/>
<text text-anchor="middle" x="431" y="-450.3" font-family="Times New Roman,serif" font-size="14.00">subClass</text>
</g>
<!-- n7&#45;&gt;n11 -->
<g id="edge14" class="edge"><title>n7&#45;&gt;n11</title>
<path fill="none" stroke="blue" stroke-dasharray="5,2" d="M354.145,-479.944C351.211,-474.249 347.944,-467.862 345,-462 340.973,-453.981 336.65,-445.219 332.75,-437.255"/>
<polygon fill="blue" stroke="blue" points="335.784,-435.491 328.252,-428.04 329.494,-438.562 335.784,-435.491"/>
<text text-anchor="middle" x="371" y="-450.3" font-family="Times New Roman,serif" font-size="14.00">subClass</text>
</g>
<!-- n8&#45;&gt;n4 -->
<g id="edge7" class="edge"><title>n8&#45;&gt;n4</title>
<path fill="none" stroke="black" d="M52.6323,-229.715C53.7006,-214.924 56.534,-193.338 64,-176 70.9106,-159.952 82.2985,-144.222 92.6583,-131.844"/>
<polygon fill="black" stroke="black" points="95.3574,-134.074 99.2604,-124.224 90.0669,-129.49 95.3574,-134.074"/>
<text text-anchor="middle" x="73.5" y="-190.3" font-family="Times New Roman,serif" font-size="14.00">is a</text>
</g>
<!-- n9&#45;&gt;n5 -->
<g id="edge8" class="edge"><title>n9&#45;&gt;n5</title>
<path fill="none" stroke="black" d="M142.767,-283.969C144.489,-267.378 147.135,-241.883 149.153,-222.431"/>
<polygon fill="black" stroke="black" points="152.65,-222.648 150.201,-212.341 145.687,-221.926 152.65,-222.648"/>
<text text-anchor="middle" x="158.5" y="-244.3" font-family="Times New Roman,serif" font-size="14.00">is a</text>
</g>
<!-- n10&#45;&gt;n5 -->
<g id="edge9" class="edge"><title>n10&#45;&gt;n5</title>
<path fill="none" stroke="black" d="M294.964,-284.67C266.274,-266.675 219.946,-237.617 187.838,-217.478"/>
<polygon fill="black" stroke="black" points="189.517,-214.4 179.186,-212.051 185.798,-220.33 189.517,-214.4"/>
<text text-anchor="middle" x="271.5" y="-244.3" font-family="Times New Roman,serif" font-size="14.00">is a</text>
</g>
</g>
</svg>
