<?xml version="1.0" encoding="UTF-8" standalone="no"?>
<!DOCTYPE svg PUBLIC "-//W3C//DTD SVG 1.1//EN"
 "http://www.w3.org/Graphics/SVG/1.1/DTD/svg11.dtd">
<!-- Generated by graphviz version 2.36.0 (20140111.2315)
 -->
<!-- Title: gdr Pages: 1 -->
<svg width="1037pt" height="439pt"
 viewBox="0.00 0.00 1037.00 439.00" xmlns="http://www.w3.org/2000/svg" xmlns:xlink="http://www.w3.org/1999/xlink">
<g id="graph0" class="graph" transform="scale(1 1) rotate(0) translate(4 435)">
<title>gdr</title>
<polygon fill="white" stroke="none" points="-4,4 -4,-435 1033,-435 1033,4 -4,4"/>
<text text-anchor="middle" x="31.5" y="-415.8" font-family="Times New Roman,serif" font-size="14.00">Instance</text>
<!-- n1 -->
<g id="node1" class="node"><title>n1</title>
<defs>
<linearGradient id="l_0" gradientUnits="userSpaceOnUse" x1="419.695" y1="-390" x2="714.305" y2="-390" >
<stop offset="0" style="stop-color:lightblue;stop-opacity:1.;"/>
<stop offset="1" style="stop-color:blue;stop-opacity:1.;"/>
</linearGradient>
</defs>
<ellipse fill="url(#l_0)" stroke="black" cx="567" cy="-390" rx="147.305" ry="18"/>
<text text-anchor="middle" x="567" y="-386.3" font-family="Times New Roman,serif" font-size="14.00" fill="white">mfc:AnswerJavaCodeModelExtractor</text>
</g>
<!-- n2 -->
<g id="node2" class="node"><title>n2</title>
<ellipse fill="blue" stroke="black" cx="567" cy="-302" rx="99.1619" ry="18"/>
<text text-anchor="middle" x="567" y="-298.3" font-family="Times New Roman,serif" font-size="14.00" fill="white">mfc:JavaModelExtractor</text>
</g>
<!-- n1&#45;&gt;n2 -->
<g id="edge1" class="edge"><title>n1&#45;&gt;n2</title>
<path fill="none" stroke="#00cd00" d="M567,-371.597C567,-359.746 567,-343.817 567,-330.292"/>
<polygon fill="#00cd00" stroke="#00cd00" points="570.5,-330.084 567,-320.084 563.5,-330.084 570.5,-330.084"/>
<text text-anchor="middle" x="602.5" y="-342.3" font-family="Times New Roman,serif" font-size="14.00">mfc:includes</text>
</g>
<!-- n5 -->
<g id="node5" class="node"><title>n5</title>
<polygon fill="#00008b" stroke="black" points="183,-232 107,-232 107,-196 183,-196 183,-232"/>
<text text-anchor="middle" x="145" y="-210.3" font-family="Times New Roman,serif" font-size="14.00" fill="white">mfc:Plugin</text>
</g>
<!-- n1&#45;&gt;n5 -->
<g id="edge6" class="edge"><title>n1&#45;&gt;n5</title>
<path fill="none" stroke="black" d="M425.849,-384.816C317.96,-378.303 181.832,-361.778 146,-320 127.886,-298.88 131.016,-265.622 136.497,-242.205"/>
<polygon fill="black" stroke="black" points="139.964,-242.779 139.112,-232.218 133.193,-241.005 139.964,-242.779"/>
<text text-anchor="middle" x="155.5" y="-298.3" font-family="Times New Roman,serif" font-size="14.00">is a</text>
</g>
<!-- n8 -->
<g id="node8" class="node"><title>n8</title>
<ellipse fill="blue" stroke="black" cx="822" cy="-302" rx="102.536" ry="18"/>
<text text-anchor="middle" x="822" y="-298.3" font-family="Times New Roman,serif" font-size="14.00" fill="white">mfc:SadlModelGenerator</text>
</g>
<!-- n1&#45;&gt;n8 -->
<g id="edge18" class="edge"><title>n1&#45;&gt;n8</title>
<path fill="none" stroke="#00cd00" d="M614.664,-372.925C657.909,-358.341 721.655,-336.842 767.034,-321.538"/>
<polygon fill="#00cd00" stroke="#00cd00" points="768.354,-324.786 776.711,-318.274 766.117,-318.153 768.354,-324.786"/>
<text text-anchor="middle" x="753.5" y="-342.3" font-family="Times New Roman,serif" font-size="14.00">mfc:includes</text>
</g>
<!-- n3 -->
<g id="node3" class="node"><title>n3</title>
<ellipse fill="blue" stroke="black" cx="498" cy="-214" rx="67.3907" ry="18"/>
<text text-anchor="middle" x="498" y="-210.3" font-family="Times New Roman,serif" font-size="14.00" fill="white">mfc:ASTParser</text>
</g>
<!-- n2&#45;&gt;n3 -->
<g id="edge2" class="edge"><title>n2&#45;&gt;n3</title>
<path fill="none" stroke="#00cd00" d="M531.526,-285.17C523.428,-280.084 515.576,-273.719 510,-266 505.056,-259.157 502.12,-250.572 500.385,-242.408"/>
<polygon fill="#00cd00" stroke="#00cd00" points="503.827,-241.765 498.77,-232.455 496.917,-242.886 503.827,-241.765"/>
<text text-anchor="middle" x="535" y="-254.3" font-family="Times New Roman,serif" font-size="14.00">mfc:uses</text>
</g>
<!-- n7 -->
<g id="node7" class="node"><title>n7</title>
<polygon fill="#00008b" stroke="black" points="475,-124 379,-124 379,-88 475,-88 475,-124"/>
<text text-anchor="middle" x="427" y="-102.3" font-family="Times New Roman,serif" font-size="14.00" fill="white">mfc:JavaClass</text>
</g>
<!-- n2&#45;&gt;n7 -->
<g id="edge9" class="edge"><title>n2&#45;&gt;n7</title>
<path fill="none" stroke="black" d="M494.684,-289.647C460.506,-280.257 422.734,-263.144 402,-232 382.143,-202.173 397.404,-160.074 411.304,-133.157"/>
<polygon fill="black" stroke="black" points="414.409,-134.773 416.104,-124.314 408.257,-131.433 414.409,-134.773"/>
<text text-anchor="middle" x="411.5" y="-210.3" font-family="Times New Roman,serif" font-size="14.00">is a</text>
</g>
<!-- n9 -->
<g id="node9" class="node"><title>n9</title>
<ellipse fill="blue" stroke="black" cx="611" cy="-214" rx="27" ry="18"/>
<text text-anchor="middle" x="611" y="-210.3" font-family="Times New Roman,serif" font-size="14.00" fill="white">&lt;1&gt;</text>
</g>
<!-- n2&#45;&gt;n9 -->
<g id="edge11" class="edge"><title>n2&#45;&gt;n9</title>
<path fill="none" stroke="#00cd00" d="M563.822,-283.618C562.776,-273.338 562.955,-260.348 568,-250 571.306,-243.219 576.618,-237.309 582.398,-232.373"/>
<polygon fill="#00cd00" stroke="#00cd00" points="584.593,-235.101 590.425,-226.255 580.35,-229.533 584.593,-235.101"/>
<text text-anchor="middle" x="594.5" y="-254.3" font-family="Times New Roman,serif" font-size="14.00">mfc:input</text>
</g>
<!-- n12 -->
<g id="node12" class="node"><title>n12</title>
<ellipse fill="blue" stroke="black" cx="840" cy="-214" rx="27" ry="18"/>
<text text-anchor="middle" x="840" y="-210.3" font-family="Times New Roman,serif" font-size="14.00" fill="white">&lt;2&gt;</text>
</g>
<!-- n2&#45;&gt;n12 -->
<g id="edge14" class="edge"><title>n2&#45;&gt;n12</title>
<path fill="none" stroke="#00cd00" d="M618.477,-286.495C664.894,-273.162 734.893,-252.423 795,-232 799.092,-230.61 803.369,-229.087 807.588,-227.542"/>
<polygon fill="#00cd00" stroke="#00cd00" points="809.07,-230.724 817.215,-223.948 806.622,-224.166 809.07,-230.724"/>
<text text-anchor="middle" x="770.5" y="-254.3" font-family="Times New Roman,serif" font-size="14.00">mfc:output</text>
</g>
<!-- n3&#45;&gt;n7 -->
<g id="edge7" class="edge"><title>n3&#45;&gt;n7</title>
<path fill="none" stroke="#00cd00" d="M486.593,-195.969C475.171,-178.917 457.449,-152.459 444.297,-132.824"/>
<polygon fill="#00cd00" stroke="#00cd00" points="447.088,-130.701 438.615,-124.341 441.272,-134.597 447.088,-130.701"/>
<text text-anchor="middle" x="483.5" y="-156.3" font-family="Times New Roman,serif" font-size="14.00">is a</text>
</g>
<!-- n4 -->
<g id="node4" class="node"><title>n4</title>
<ellipse fill="blue" stroke="black" cx="312" cy="-302" rx="137.183" ry="18"/>
<text text-anchor="middle" x="312" y="-298.3" font-family="Times New Roman,serif" font-size="14.00" fill="white">mfc:EclipseJavaDevelopmentTools</text>
</g>
<!-- n4&#45;&gt;n3 -->
<g id="edge3" class="edge"><title>n4&#45;&gt;n3</title>
<path fill="none" stroke="#00cd00" d="M347.863,-284.418C378.897,-270.069 423.79,-249.312 456.396,-234.236"/>
<polygon fill="#00cd00" stroke="#00cd00" points="458.06,-237.323 465.668,-229.949 455.122,-230.969 458.06,-237.323"/>
<text text-anchor="middle" x="457.5" y="-254.3" font-family="Times New Roman,serif" font-size="14.00">mfc:includes</text>
</g>
<!-- n4&#45;&gt;n5 -->
<g id="edge4" class="edge"><title>n4&#45;&gt;n5</title>
<path fill="none" stroke="#00cd00" d="M279.801,-284.418C253.459,-270.853 215.996,-251.561 187.246,-236.756"/>
<polygon fill="#00cd00" stroke="#00cd00" points="188.736,-233.586 178.243,-232.119 185.531,-239.809 188.736,-233.586"/>
<text text-anchor="middle" x="253.5" y="-254.3" font-family="Times New Roman,serif" font-size="14.00">is a</text>
</g>
<!-- n6 -->
<g id="node6" class="node"><title>n6</title>
<polygon fill="#00008b" stroke="black" points="92,-320 0,-320 0,-284 92,-284 92,-320"/>
<text text-anchor="middle" x="46" y="-298.3" font-family="Times New Roman,serif" font-size="14.00" fill="white">mfc:Software</text>
</g>
<!-- n6&#45;&gt;n5 -->
<g id="edge5" class="edge"><title>n6&#45;&gt;n5</title>
<path fill="none" stroke="blue" stroke-dasharray="5,2" d="M51.2115,-283.613C55.183,-272.816 61.5916,-259.278 71,-250 78.5918,-242.514 88.0893,-236.409 97.7236,-231.52"/>
<polygon fill="blue" stroke="blue" points="99.3747,-234.611 106.945,-227.199 96.4044,-228.273 99.3747,-234.611"/>
<text text-anchor="middle" x="97" y="-254.3" font-family="Times New Roman,serif" font-size="14.00">subClass</text>
</g>
<!-- n6&#45;&gt;n7 -->
<g id="edge8" class="edge"><title>n6&#45;&gt;n7</title>
<path fill="none" stroke="blue" stroke-dasharray="5,2" d="M40.0453,-283.622C33.4535,-260.882 26.1735,-220.992 46,-196 85.6121,-146.068 271.886,-121.516 368.514,-111.966"/>
<polygon fill="blue" stroke="blue" points="369.09,-115.427 378.708,-110.981 368.417,-108.459 369.09,-115.427"/>
<text text-anchor="middle" x="72" y="-210.3" font-family="Times New Roman,serif" font-size="14.00">subClass</text>
</g>
<!-- n8&#45;&gt;n7 -->
<g id="edge10" class="edge"><title>n8&#45;&gt;n7</title>
<path fill="none" stroke="black" d="M780.35,-285.421C752.831,-273.687 717.153,-255.584 691,-232 673.149,-215.903 651.154,-155.099 631,-142 624.845,-137.999 543.401,-124.841 485.31,-115.849"/>
<polygon fill="black" stroke="black" points="485.537,-112.343 475.12,-114.277 484.47,-119.261 485.537,-112.343"/>
<text text-anchor="middle" x="700.5" y="-210.3" font-family="Times New Roman,serif" font-size="14.00">is a</text>
</g>
<!-- n14 -->
<g id="node14" class="node"><title>n14</title>
<ellipse fill="blue" stroke="black" cx="930" cy="-214" rx="27" ry="18"/>
<text text-anchor="middle" x="930" y="-210.3" font-family="Times New Roman,serif" font-size="14.00" fill="white">&lt;3&gt;</text>
</g>
<!-- n8&#45;&gt;n14 -->
<g id="edge19" class="edge"><title>n8&#45;&gt;n14</title>
<path fill="none" stroke="#00cd00" d="M843.08,-284.214C860.94,-269.992 886.569,-249.584 905.371,-234.612"/>
<polygon fill="#00cd00" stroke="#00cd00" points="907.58,-237.327 913.222,-228.36 903.219,-231.851 907.58,-237.327"/>
<text text-anchor="middle" x="912.5" y="-254.3" font-family="Times New Roman,serif" font-size="14.00">mfc:input</text>
</g>
<!-- n15 -->
<g id="node15" class="node"><title>n15</title>
<ellipse fill="blue" stroke="black" cx="1002" cy="-160" rx="27" ry="18"/>
<text text-anchor="middle" x="1002" y="-156.3" font-family="Times New Roman,serif" font-size="14.00" fill="white">&lt;4&gt;</text>
</g>
<!-- n8&#45;&gt;n15 -->
<g id="edge20" class="edge"><title>n8&#45;&gt;n15</title>
<path fill="none" stroke="#00cd00" d="M893.611,-289.09C910.872,-283.928 928.498,-276.547 943,-266 969.486,-246.737 985.648,-211.741 994.204,-187.475"/>
<polygon fill="#00cd00" stroke="#00cd00" points="997.584,-188.402 997.413,-177.808 990.941,-186.196 997.584,-188.402"/>
<text text-anchor="middle" x="990.5" y="-254.3" font-family="Times New Roman,serif" font-size="14.00">mfc:output</text>
</g>
<!-- n10 -->
<g id="node10" class="node"><title>n10</title>
<polygon fill="#00008b" stroke="black" points="683,-124 547,-124 547,-88 683,-88 683,-124"/>
<text text-anchor="middle" x="615" y="-102.3" font-family="Times New Roman,serif" font-size="14.00" fill="white">mfc:JavaSourceCode</text>
</g>
<!-- n9&#45;&gt;n10 -->
<g id="edge12" class="edge"><title>n9&#45;&gt;n10</title>
<path fill="none" stroke="#00cd00" d="M611.643,-195.969C612.269,-179.378 613.231,-153.883 613.965,-134.431"/>
<polygon fill="#00cd00" stroke="#00cd00" points="617.466,-134.466 614.346,-124.341 610.471,-134.201 617.466,-134.466"/>
<text text-anchor="middle" x="623.5" y="-156.3" font-family="Times New Roman,serif" font-size="14.00">is a</text>
</g>
<!-- n11 -->
<g id="node11" class="node"><title>n11</title>
<polygon fill="#00008b" stroke="black" points="786.25,-232 719.75,-232 719.75,-196 786.25,-196 786.25,-232"/>
<text text-anchor="middle" x="753" y="-210.3" font-family="Times New Roman,serif" font-size="14.00" fill="white">mfc:Data</text>
</g>
<!-- n11&#45;&gt;n10 -->
<g id="edge13" class="edge"><title>n11&#45;&gt;n10</title>
<path fill="none" stroke="blue" stroke-dasharray="5,2" d="M722.742,-195.827C713.902,-190.439 704.372,-184.256 696,-178 676.841,-163.683 673.986,-157.766 656,-142 651.865,-138.376 647.469,-134.571 643.149,-130.861"/>
<polygon fill="blue" stroke="blue" points="645.402,-128.183 635.528,-124.342 640.852,-133.502 645.402,-128.183"/>
<text text-anchor="middle" x="722" y="-156.3" font-family="Times New Roman,serif" font-size="14.00">subClass</text>
</g>
<!-- n13 -->
<g id="node13" class="node"><title>n13</title>
<polygon fill="#00008b" stroke="black" points="990,-124 816,-124 816,-88 990,-88 990,-124"/>
<text text-anchor="middle" x="903" y="-102.3" font-family="Times New Roman,serif" font-size="14.00" fill="white">mfc:LanguageNeutralExtract</text>
</g>
<!-- n11&#45;&gt;n13 -->
<g id="edge16" class="edge"><title>n11&#45;&gt;n13</title>
<path fill="none" stroke="blue" stroke-dasharray="5,2" d="M784.478,-195.942C792.121,-190.844 799.853,-184.781 806,-178 818.151,-164.596 811.806,-154.378 825,-142 830.284,-137.043 836.389,-132.704 842.809,-128.927"/>
<polygon fill="blue" stroke="blue" points="844.575,-131.951 851.712,-124.121 841.25,-125.792 844.575,-131.951"/>
<text text-anchor="middle" x="851" y="-156.3" font-family="Times New Roman,serif" font-size="14.00">subClass</text>
</g>
<!-- n17 -->
<g id="node17" class="node"><title>n17</title>
<polygon fill="#00008b" stroke="black" points="798,-124 704,-124 704,-88 798,-88 798,-124"/>
<text text-anchor="middle" x="751" y="-102.3" font-family="Times New Roman,serif" font-size="14.00" fill="white">mfc:Ontology</text>
</g>
<!-- n11&#45;&gt;n17 -->
<g id="edge23" class="edge"><title>n11&#45;&gt;n17</title>
<path fill="none" stroke="blue" stroke-dasharray="5,2" d="M752.679,-195.969C752.366,-179.378 751.885,-153.883 751.518,-134.431"/>
<polygon fill="blue" stroke="blue" points="755.015,-134.273 751.327,-124.341 748.017,-134.405 755.015,-134.273"/>
<text text-anchor="middle" x="779" y="-156.3" font-family="Times New Roman,serif" font-size="14.00">subClass</text>
</g>
<!-- n12&#45;&gt;n13 -->
<g id="edge15" class="edge"><title>n12&#45;&gt;n13</title>
<path fill="none" stroke="#00cd00" d="M858.852,-200.546C866.667,-194.548 875.235,-186.754 881,-178 889.653,-164.86 895.054,-148.131 898.338,-134.213"/>
<polygon fill="#00cd00" stroke="#00cd00" points="901.805,-134.732 900.455,-124.224 894.958,-133.281 901.805,-134.732"/>
<text text-anchor="middle" x="906.5" y="-156.3" font-family="Times New Roman,serif" font-size="14.00">is a</text>
</g>
<!-- n14&#45;&gt;n13 -->
<g id="edge17" class="edge"><title>n14&#45;&gt;n13</title>
<path fill="none" stroke="black" d="M930.301,-195.958C930.097,-181.319 928.683,-159.819 923,-142 922.052,-139.029 920.829,-136.031 919.454,-133.107"/>
<polygon fill="black" stroke="black" points="922.474,-131.332 914.699,-124.136 916.289,-134.61 922.474,-131.332"/>
<text text-anchor="middle" x="939.5" y="-156.3" font-family="Times New Roman,serif" font-size="14.00">is a</text>
</g>
<!-- n16 -->
<g id="node16" class="node"><title>n16</title>
<polygon fill="#00008b" stroke="black" points="991,-36 889,-36 889,-0 991,-0 991,-36"/>
<text text-anchor="middle" x="940" y="-14.3" font-family="Times New Roman,serif" font-size="14.00" fill="white">mfc:SadlModel</text>
</g>
<!-- n15&#45;&gt;n16 -->
<g id="edge21" class="edge"><title>n15&#45;&gt;n16</title>
<path fill="none" stroke="#00cd00" d="M1004.32,-142.008C1005.64,-127.209 1005.87,-105.451 999,-88 992.31,-70.9954 979.578,-55.2409 967.65,-43.0919"/>
<polygon fill="#00cd00" stroke="#00cd00" points="969.992,-40.4873 960.388,-36.0145 965.106,-45.5004 969.992,-40.4873"/>
<text text-anchor="middle" x="1015.5" y="-102.3" font-family="Times New Roman,serif" font-size="14.00">is a</text>
</g>
<!-- n17&#45;&gt;n16 -->
<g id="edge22" class="edge"><title>n17&#45;&gt;n16</title>
<path fill="none" stroke="blue" stroke-dasharray="5,2" d="M788.793,-87.8033C818.893,-74.1069 861.174,-54.8681 893.375,-40.2155"/>
<polygon fill="blue" stroke="blue" points="894.943,-43.3476 902.595,-36.0201 892.044,-36.9761 894.943,-43.3476"/>
<text text-anchor="middle" x="889" y="-58.3" font-family="Times New Roman,serif" font-size="14.00">subClass</text>
</g>
</g>
</svg>
