<?xml version="1.0" encoding="UTF-8" standalone="no"?>
<!DOCTYPE svg PUBLIC "-//W3C//DTD SVG 1.1//EN"
 "http://www.w3.org/Graphics/SVG/1.1/DTD/svg11.dtd">
<!-- Generated by graphviz version 2.36.0 (20140111.2315)
 -->
<!-- Title: gmfc Pages: 1 -->
<svg width="859pt" height="439pt"
 viewBox="0.00 0.00 859.12 439.00" xmlns="http://www.w3.org/2000/svg" xmlns:xlink="http://www.w3.org/1999/xlink">
<g id="graph0" class="graph" transform="scale(1 1) rotate(0) translate(4 435)">
<title>gmfc</title>
<polygon fill="white" stroke="none" points="-4,4 -4,-435 855.118,-435 855.118,4 -4,4"/>
<text text-anchor="middle" x="88" y="-415.8" font-family="Times New Roman,serif" font-size="14.00">Graph of Ontology File: mfc</text>
<!-- n1 -->
<g id="node1" class="node"><title>n1</title>
<ellipse fill="blue" stroke="black" cx="358.118" cy="-214" rx="27" ry="18"/>
<text text-anchor="middle" x="358.118" y="-210.3" font-family="Times New Roman,serif" font-size="14.00" fill="white">&lt;1&gt;</text>
</g>
<!-- n2 -->
<g id="node2" class="node"><title>n2</title>
<polygon fill="#00008b" stroke="black" points="404.368,-124 293.868,-124 293.868,-88 404.368,-88 404.368,-124"/>
<text text-anchor="middle" x="349.118" y="-102.3" font-family="Times New Roman,serif" font-size="14.00" fill="white">JavaSourceCode</text>
</g>
<!-- n1&#45;&gt;n2 -->
<g id="edge1" class="edge"><title>n1&#45;&gt;n2</title>
<path fill="none" stroke="black" d="M356.672,-195.969C355.263,-179.378 353.099,-153.883 351.447,-134.431"/>
<polygon fill="black" stroke="black" points="354.924,-134.009 350.59,-124.341 347.949,-134.601 354.924,-134.009"/>
<text text-anchor="middle" x="364.618" y="-156.3" font-family="Times New Roman,serif" font-size="14.00">is a</text>
</g>
<!-- n3 -->
<g id="node3" class="node"><title>n3</title>
<ellipse fill="blue" stroke="black" cx="454.118" cy="-214" rx="51.0191" ry="18"/>
<text text-anchor="middle" x="454.118" y="-210.3" font-family="Times New Roman,serif" font-size="14.00" fill="white">ASTParser</text>
</g>
<!-- n4 -->
<g id="node4" class="node"><title>n4</title>
<polygon fill="#00008b" stroke="black" points="516.368,-124 445.868,-124 445.868,-88 516.368,-88 516.368,-124"/>
<text text-anchor="middle" x="481.118" y="-102.3" font-family="Times New Roman,serif" font-size="14.00" fill="white">JavaClass</text>
</g>
<!-- n3&#45;&gt;n4 -->
<g id="edge2" class="edge"><title>n3&#45;&gt;n4</title>
<path fill="none" stroke="black" d="M458.456,-195.969C462.702,-179.301 469.236,-153.646 474.2,-134.161"/>
<polygon fill="black" stroke="black" points="477.624,-134.895 476.701,-124.341 470.841,-133.167 477.624,-134.895"/>
<text text-anchor="middle" x="481.618" y="-156.3" font-family="Times New Roman,serif" font-size="14.00">is a</text>
</g>
<!-- n5 -->
<g id="node5" class="node"><title>n5</title>
<ellipse fill="blue" stroke="black" cx="764.118" cy="-302" rx="86.1637" ry="18"/>
<text text-anchor="middle" x="764.118" y="-298.3" font-family="Times New Roman,serif" font-size="14.00" fill="white">SadlModelGenerator</text>
</g>
<!-- n5&#45;&gt;n4 -->
<g id="edge5" class="edge"><title>n5&#45;&gt;n4</title>
<path fill="none" stroke="black" d="M740.258,-284.44C723.596,-271.782 701.945,-252.982 688.118,-232 664.838,-196.675 689.14,-169.648 657.118,-142 624.26,-113.631 603.685,-132.512 561.118,-124 549.925,-121.762 537.873,-119.253 526.605,-116.864"/>
<polygon fill="black" stroke="black" points="527.034,-113.377 516.524,-114.715 525.575,-120.223 527.034,-113.377"/>
<text text-anchor="middle" x="697.618" y="-210.3" font-family="Times New Roman,serif" font-size="14.00">is a</text>
</g>
<!-- n6 -->
<g id="node6" class="node"><title>n6</title>
<ellipse fill="blue" stroke="black" cx="743.118" cy="-214" rx="27" ry="18"/>
<text text-anchor="middle" x="743.118" y="-210.3" font-family="Times New Roman,serif" font-size="14.00" fill="white">&lt;2&gt;</text>
</g>
<!-- n5&#45;&gt;n6 -->
<g id="edge3" class="edge"><title>n5&#45;&gt;n6</title>
<path fill="none" stroke="#00cd00" d="M754.969,-283.976C752.344,-278.394 749.752,-272.064 748.118,-266 746.081,-258.441 744.853,-250.052 744.12,-242.297"/>
<polygon fill="#00cd00" stroke="#00cd00" points="747.606,-241.976 743.396,-232.253 740.624,-242.479 747.606,-241.976"/>
<text text-anchor="middle" x="762.118" y="-254.3" font-family="Times New Roman,serif" font-size="14.00">input</text>
</g>
<!-- n7 -->
<g id="node7" class="node"><title>n7</title>
<ellipse fill="blue" stroke="black" cx="788.118" cy="-160" rx="27" ry="18"/>
<text text-anchor="middle" x="788.118" y="-156.3" font-family="Times New Roman,serif" font-size="14.00" fill="white">&lt;3&gt;</text>
</g>
<!-- n5&#45;&gt;n7 -->
<g id="edge4" class="edge"><title>n5&#45;&gt;n7</title>
<path fill="none" stroke="#00cd00" d="M770.855,-283.767C772.817,-278.173 774.788,-271.89 776.118,-266 781.994,-239.972 785.067,-209.631 786.625,-188.276"/>
<polygon fill="#00cd00" stroke="#00cd00" points="790.118,-188.497 787.291,-178.287 783.133,-188.032 790.118,-188.497"/>
<text text-anchor="middle" x="797.618" y="-254.3" font-family="Times New Roman,serif" font-size="14.00">output</text>
</g>
<!-- n9 -->
<g id="node9" class="node"><title>n9</title>
<polygon fill="#00008b" stroke="black" points="719.368,-124 570.868,-124 570.868,-88 719.368,-88 719.368,-124"/>
<text text-anchor="middle" x="645.118" y="-102.3" font-family="Times New Roman,serif" font-size="14.00" fill="white">LanguageNeutralExtract</text>
</g>
<!-- n6&#45;&gt;n9 -->
<g id="edge7" class="edge"><title>n6&#45;&gt;n9</title>
<path fill="none" stroke="black" d="M733.916,-196.929C724.762,-181.755 709.717,-158.874 693.118,-142 689.14,-137.956 684.656,-134.034 680.067,-130.369"/>
<polygon fill="black" stroke="black" points="681.86,-127.336 671.779,-124.077 677.627,-132.911 681.86,-127.336"/>
<text text-anchor="middle" x="731.618" y="-156.3" font-family="Times New Roman,serif" font-size="14.00">is a</text>
</g>
<!-- n8 -->
<g id="node8" class="node"><title>n8</title>
<polygon fill="#00008b" stroke="black" points="645.368,-36 568.868,-36 568.868,-0 645.368,-0 645.368,-36"/>
<text text-anchor="middle" x="607.118" y="-14.3" font-family="Times New Roman,serif" font-size="14.00" fill="white">SadlModel</text>
</g>
<!-- n7&#45;&gt;n8 -->
<g id="edge6" class="edge"><title>n7&#45;&gt;n8</title>
<path fill="none" stroke="black" d="M777.301,-143.211C766.215,-127.822 747.847,-104.407 728.118,-88 705.63,-69.2992 677.383,-52.8676 653.838,-40.7351"/>
<polygon fill="black" stroke="black" points="655.239,-37.5213 644.735,-36.1355 652.082,-43.7691 655.239,-37.5213"/>
<text text-anchor="middle" x="771.618" y="-102.3" font-family="Times New Roman,serif" font-size="14.00">is a</text>
</g>
<!-- n10 -->
<g id="node10" class="node"><title>n10</title>
<polygon fill="#00008b" stroke="black" points="188.118,-232 134.118,-232 134.118,-196 188.118,-196 188.118,-232"/>
<text text-anchor="middle" x="161.118" y="-210.3" font-family="Times New Roman,serif" font-size="14.00" fill="white">Data</text>
</g>
<!-- n10&#45;&gt;n2 -->
<g id="edge11" class="edge"><title>n10&#45;&gt;n2</title>
<path fill="none" stroke="blue" stroke-dasharray="5,2" d="M167.355,-195.805C174.449,-177.165 186.2,-149.121 195.118,-142 219.937,-122.181 253.828,-113.132 283.499,-109.164"/>
<polygon fill="blue" stroke="blue" points="284.269,-112.598 293.796,-107.963 283.458,-105.645 284.269,-112.598"/>
<text text-anchor="middle" x="221.118" y="-156.3" font-family="Times New Roman,serif" font-size="14.00">subClass</text>
</g>
<!-- n10&#45;&gt;n9 -->
<g id="edge22" class="edge"><title>n10&#45;&gt;n9</title>
<path fill="none" stroke="blue" stroke-dasharray="5,2" d="M188.377,-206.047C203.274,-202.504 222.106,-198.439 239.118,-196 352.022,-179.813 385.098,-208.085 495.118,-178 529.628,-168.563 534.79,-157.327 567.118,-142 576.672,-137.471 586.948,-132.752 596.805,-128.3"/>
<polygon fill="blue" stroke="blue" points="598.403,-131.419 606.09,-124.128 595.534,-125.034 598.403,-131.419"/>
<text text-anchor="middle" x="593.118" y="-156.3" font-family="Times New Roman,serif" font-size="14.00">subClass</text>
</g>
<!-- n11 -->
<g id="node11" class="node"><title>n11</title>
<polygon fill="#00008b" stroke="black" points="214.368,-124 145.868,-124 145.868,-88 214.368,-88 214.368,-124"/>
<text text-anchor="middle" x="180.118" y="-102.3" font-family="Times New Roman,serif" font-size="14.00" fill="white">Ontology</text>
</g>
<!-- n10&#45;&gt;n11 -->
<g id="edge8" class="edge"><title>n10&#45;&gt;n11</title>
<path fill="none" stroke="blue" stroke-dasharray="5,2" d="M134.073,-195.758C128.433,-190.767 123.253,-184.799 120.118,-178 113.418,-163.471 112.149,-155.874 120.118,-142 124.172,-134.941 130.26,-129.172 137.027,-124.502"/>
<polygon fill="blue" stroke="blue" points="139.113,-127.331 145.86,-119.161 135.491,-121.341 139.113,-127.331"/>
<text text-anchor="middle" x="146.118" y="-156.3" font-family="Times New Roman,serif" font-size="14.00">subClass</text>
</g>
<!-- n11&#45;&gt;n8 -->
<g id="edge17" class="edge"><title>n11&#45;&gt;n8</title>
<path fill="none" stroke="blue" stroke-dasharray="5,2" d="M214.7,-98.0351C290.615,-82.7454 471.998,-46.2139 558.984,-28.6944"/>
<polygon fill="blue" stroke="blue" points="559.748,-32.1109 568.86,-26.7053 558.366,-25.2487 559.748,-32.1109"/>
<text text-anchor="middle" x="458.118" y="-58.3" font-family="Times New Roman,serif" font-size="14.00">subClass</text>
</g>
<!-- n12 -->
<g id="node12" class="node"><title>n12</title>
<polygon fill="#00008b" stroke="black" points="105.368,-320 38.868,-320 38.868,-284 105.368,-284 105.368,-320"/>
<text text-anchor="middle" x="72.118" y="-298.3" font-family="Times New Roman,serif" font-size="14.00" fill="white">Software</text>
</g>
<!-- n12&#45;&gt;n4 -->
<g id="edge23" class="edge"><title>n12&#45;&gt;n4</title>
<path fill="none" stroke="blue" stroke-dasharray="5,2" d="M105.587,-298.291C150.369,-294.014 226.542,-284.242 247.118,-266 271.622,-244.275 250.448,-222.182 270.118,-196 295.664,-161.997 310.449,-159.706 349.118,-142 353.219,-140.122 399.096,-128.107 435.629,-118.672"/>
<polygon fill="blue" stroke="blue" points="436.833,-121.976 445.642,-116.089 435.085,-115.197 436.833,-121.976"/>
<text text-anchor="middle" x="296.118" y="-210.3" font-family="Times New Roman,serif" font-size="14.00">subClass</text>
</g>
<!-- n12&#45;&gt;n10 -->
<g id="edge26" class="edge"><title>n12&#45;&gt;n10</title>
<path fill="none" stroke="#00cd00" d="M105.452,-289.053C117.278,-283.506 129.921,-275.906 139.118,-266 145.437,-259.194 150.116,-250.291 153.493,-241.831"/>
<polygon fill="#00cd00" stroke="#00cd00" points="156.845,-242.851 156.881,-232.257 150.246,-240.516 156.845,-242.851"/>
<text text-anchor="middle" x="168.618" y="-254.3" font-family="Times New Roman,serif" font-size="14.00">output</text>
</g>
<!-- n12&#45;&gt;n10 -->
<g id="edge27" class="edge"><title>n12&#45;&gt;n10</title>
<path fill="none" stroke="#00cd00" d="M81.6506,-283.656C87.9753,-273.14 96.9634,-259.89 107.118,-250 112.565,-244.695 118.933,-239.736 125.347,-235.315"/>
<polygon fill="#00cd00" stroke="#00cd00" points="127.581,-238.037 134.039,-229.638 123.753,-232.176 127.581,-238.037"/>
<text text-anchor="middle" x="121.118" y="-254.3" font-family="Times New Roman,serif" font-size="14.00">input</text>
</g>
<!-- n12&#45;&gt;n12 -->
<g id="edge24" class="edge"><title>n12&#45;&gt;n12</title>
<path fill="none" stroke="#00cd00" d="M105.473,-306.116C115.396,-305.993 123.118,-304.621 123.118,-302 123.118,-300.403 120.251,-299.269 115.765,-298.6"/>
<polygon fill="#00cd00" stroke="#00cd00" points="115.691,-295.086 105.473,-297.884 115.206,-302.069 115.691,-295.086"/>
<text text-anchor="middle" x="146.118" y="-298.3" font-family="Times New Roman,serif" font-size="14.00">includes</text>
</g>
<!-- n12&#45;&gt;n12 -->
<g id="edge25" class="edge"><title>n12&#45;&gt;n12</title>
<path fill="none" stroke="#00cd00" d="M105.558,-309.161C134.735,-311.885 169.118,-309.498 169.118,-302 169.118,-295.351 142.084,-292.721 115.617,-294.11"/>
<polygon fill="#00cd00" stroke="#00cd00" points="115.279,-290.625 105.558,-294.839 115.785,-297.607 115.279,-290.625"/>
<text text-anchor="middle" x="181.618" y="-298.3" font-family="Times New Roman,serif" font-size="14.00">uses</text>
</g>
<!-- n13 -->
<g id="node13" class="node"><title>n13</title>
<polygon fill="#00008b" stroke="black" points="62.118,-232 8.11802,-232 8.11802,-196 62.118,-196 62.118,-232"/>
<text text-anchor="middle" x="35.118" y="-210.3" font-family="Times New Roman,serif" font-size="14.00" fill="white">Plugin</text>
</g>
<!-- n12&#45;&gt;n13 -->
<g id="edge9" class="edge"><title>n12&#45;&gt;n13</title>
<path fill="none" stroke="blue" stroke-dasharray="5,2" d="M49.1508,-283.928C43.9119,-278.794 39.0337,-272.717 36.118,-266 32.9664,-258.74 31.8935,-250.333 31.8319,-242.464"/>
<polygon fill="blue" stroke="blue" points="35.3392,-242.369 32.2747,-232.228 28.3458,-242.067 35.3392,-242.369"/>
<text text-anchor="middle" x="62.118" y="-254.3" font-family="Times New Roman,serif" font-size="14.00">subClass</text>
</g>
<!-- n14 -->
<g id="node14" class="node"><title>n14</title>
<ellipse fill="blue" stroke="black" cx="612.118" cy="-214" rx="27" ry="18"/>
<text text-anchor="middle" x="612.118" y="-210.3" font-family="Times New Roman,serif" font-size="14.00" fill="white">&lt;4&gt;</text>
</g>
<!-- n14&#45;&gt;n9 -->
<g id="edge10" class="edge"><title>n14&#45;&gt;n9</title>
<path fill="none" stroke="black" d="M617.391,-196.27C619.211,-190.484 621.259,-183.959 623.118,-178 627.638,-163.517 632.646,-147.362 636.741,-134.125"/>
<polygon fill="black" stroke="black" points="640.193,-134.81 639.803,-124.222 633.505,-132.742 640.193,-134.81"/>
<text text-anchor="middle" x="643.618" y="-156.3" font-family="Times New Roman,serif" font-size="14.00">is a</text>
</g>
<!-- n15 -->
<g id="node15" class="node"><title>n15</title>
<ellipse fill="blue" stroke="black" cx="353.118" cy="-302" rx="122.284" ry="18"/>
<text text-anchor="middle" x="353.118" y="-298.3" font-family="Times New Roman,serif" font-size="14.00" fill="white">EclipseJavaDevelopmentTools</text>
</g>
<!-- n15&#45;&gt;n3 -->
<g id="edge12" class="edge"><title>n15&#45;&gt;n3</title>
<path fill="none" stroke="#00cd00" d="M353.261,-283.57C354.226,-272.756 357.14,-259.215 365.118,-250 371.078,-243.116 388.27,-235.706 405.974,-229.484"/>
<polygon fill="#00cd00" stroke="#00cd00" points="407.444,-232.681 415.795,-226.16 405.2,-226.051 407.444,-232.681"/>
<text text-anchor="middle" x="388.118" y="-254.3" font-family="Times New Roman,serif" font-size="14.00">includes</text>
</g>
<!-- n15&#45;&gt;n13 -->
<g id="edge13" class="edge"><title>n15&#45;&gt;n13</title>
<path fill="none" stroke="black" d="M306.636,-285.221C274.416,-274.567 230.411,-260.573 191.118,-250 150.903,-239.179 104.241,-229.02 72.5027,-222.463"/>
<polygon fill="black" stroke="black" points="72.8414,-218.96 62.3425,-220.382 71.4367,-225.818 72.8414,-218.96"/>
<text text-anchor="middle" x="254.618" y="-254.3" font-family="Times New Roman,serif" font-size="14.00">is a</text>
</g>
<!-- n16 -->
<g id="node16" class="node"><title>n16</title>
<ellipse fill="blue" stroke="black" cx="576.118" cy="-390" rx="130.933" ry="18"/>
<text text-anchor="middle" x="576.118" y="-386.3" font-family="Times New Roman,serif" font-size="14.00" fill="white">AnswerJavaCodeModelExtractor</text>
</g>
<!-- n16&#45;&gt;n5 -->
<g id="edge15" class="edge"><title>n16&#45;&gt;n5</title>
<path fill="none" stroke="#00cd00" d="M611.922,-372.622C642.854,-358.472 687.646,-337.982 720.632,-322.892"/>
<polygon fill="#00cd00" stroke="#00cd00" points="722.393,-325.936 730.031,-318.593 719.481,-319.57 722.393,-325.936"/>
<text text-anchor="middle" x="710.118" y="-342.3" font-family="Times New Roman,serif" font-size="14.00">includes</text>
</g>
<!-- n16&#45;&gt;n13 -->
<g id="edge16" class="edge"><title>n16&#45;&gt;n13</title>
<path fill="none" stroke="black" d="M455.98,-382.712C298.613,-373.225 39.1574,-352.794 10.118,-320 -9.18379,-298.202 4.15345,-264.185 17.6204,-240.811"/>
<polygon fill="black" stroke="black" points="20.7019,-242.481 22.9142,-232.119 14.7234,-238.839 20.7019,-242.481"/>
<text text-anchor="middle" x="19.618" y="-298.3" font-family="Times New Roman,serif" font-size="14.00">is a</text>
</g>
<!-- n17 -->
<g id="node17" class="node"><title>n17</title>
<ellipse fill="blue" stroke="black" cx="576.118" cy="-302" rx="83.2892" ry="18"/>
<text text-anchor="middle" x="576.118" y="-298.3" font-family="Times New Roman,serif" font-size="14.00" fill="white">JavaModelExtractor</text>
</g>
<!-- n16&#45;&gt;n17 -->
<g id="edge14" class="edge"><title>n16&#45;&gt;n17</title>
<path fill="none" stroke="#00cd00" d="M576.118,-371.597C576.118,-359.746 576.118,-343.817 576.118,-330.292"/>
<polygon fill="#00cd00" stroke="#00cd00" points="579.618,-330.084 576.118,-320.084 572.618,-330.084 579.618,-330.084"/>
<text text-anchor="middle" x="599.118" y="-342.3" font-family="Times New Roman,serif" font-size="14.00">includes</text>
</g>
<!-- n17&#45;&gt;n1 -->
<g id="edge19" class="edge"><title>n17&#45;&gt;n1</title>
<path fill="none" stroke="#00cd00" d="M521.995,-288.298C500.236,-282.499 475.135,-274.921 453.118,-266 429.668,-256.499 404.497,-242.813 385.96,-232.011"/>
<polygon fill="#00cd00" stroke="#00cd00" points="387.563,-228.892 377.173,-226.816 384.001,-234.918 387.563,-228.892"/>
<text text-anchor="middle" x="467.118" y="-254.3" font-family="Times New Roman,serif" font-size="14.00">input</text>
</g>
<!-- n17&#45;&gt;n3 -->
<g id="edge18" class="edge"><title>n17&#45;&gt;n3</title>
<path fill="none" stroke="#00cd00" d="M537.321,-285.955C525.496,-280.518 512.807,-273.773 502.118,-266 491.774,-258.478 481.827,-248.527 473.696,-239.413"/>
<polygon fill="#00cd00" stroke="#00cd00" points="476.233,-236.995 467.055,-231.702 470.929,-241.563 476.233,-236.995"/>
<text text-anchor="middle" x="514.618" y="-254.3" font-family="Times New Roman,serif" font-size="14.00">uses</text>
</g>
<!-- n17&#45;&gt;n4 -->
<g id="edge21" class="edge"><title>n17&#45;&gt;n4</title>
<path fill="none" stroke="black" d="M567.687,-283.784C551.033,-249.773 513.818,-173.776 494.044,-133.396"/>
<polygon fill="black" stroke="black" points="497.071,-131.619 489.53,-124.178 490.784,-134.698 497.071,-131.619"/>
<text text-anchor="middle" x="551.618" y="-210.3" font-family="Times New Roman,serif" font-size="14.00">is a</text>
</g>
<!-- n17&#45;&gt;n14 -->
<g id="edge20" class="edge"><title>n17&#45;&gt;n14</title>
<path fill="none" stroke="#00cd00" d="M583.23,-284.009C588.342,-271.798 595.33,-255.105 601.153,-241.195"/>
<polygon fill="#00cd00" stroke="#00cd00" points="604.51,-242.239 605.143,-231.663 598.053,-239.536 604.51,-242.239"/>
<text text-anchor="middle" x="616.618" y="-254.3" font-family="Times New Roman,serif" font-size="14.00">output</text>
</g>
</g>
</svg>
