<?xml version="1.0" encoding="UTF-8" standalone="no"?>
<!DOCTYPE svg PUBLIC "-//W3C//DTD SVG 1.1//EN"
 "http://www.w3.org/Graphics/SVG/1.1/DTD/svg11.dtd">
<!-- Generated by graphviz version 2.36.0 (20140111.2315)
 -->
<!-- Title: gdr Pages: 1 -->
<svg width="458pt" height="527pt"
 viewBox="0.00 0.00 458.00 527.00" xmlns="http://www.w3.org/2000/svg" xmlns:xlink="http://www.w3.org/1999/xlink">
<g id="graph0" class="graph" transform="scale(1 1) rotate(0) translate(4 523)">
<title>gdr</title>
<polygon fill="white" stroke="none" points="-4,4 -4,-523 454,-523 454,4 -4,4"/>
<text text-anchor="middle" x="31.5" y="-503.8" font-family="Times New Roman,serif" font-size="14.00">Instance</text>
<!-- n1 -->
<g id="node1" class="node"><title>n1</title>
<ellipse fill="blue" stroke="black" cx="174" cy="-478" rx="54.3924" ry="18"/>
<text text-anchor="middle" x="174" y="-474.3" font-family="Times New Roman,serif" font-size="14.00" fill="white">SampleUser</text>
</g>
<!-- n2 -->
<g id="node2" class="node"><title>n2</title>
<defs>
<linearGradient id="l_0" gradientUnits="userSpaceOnUse" x1="53.8346" y1="-390" x2="200.165" y2="-390" >
<stop offset="0" style="stop-color:lightblue;stop-opacity:1.;"/>
<stop offset="1" style="stop-color:blue;stop-opacity:1.;"/>
</linearGradient>
</defs>
<ellipse fill="url(#l_0)" stroke="black" cx="127" cy="-390" rx="73.1654" ry="18"/>
<text text-anchor="middle" x="127" y="-386.3" font-family="Times New Roman,serif" font-size="14.00" fill="white">CurationManager</text>
</g>
<!-- n1&#45;&gt;n2 -->
<g id="edge1" class="edge"><title>n1&#45;&gt;n2</title>
<path fill="none" stroke="#00cd00" d="M164.714,-460.009C158.02,-447.759 148.859,-430.998 141.243,-417.062"/>
<polygon fill="#00cd00" stroke="#00cd00" points="144.133,-415.052 136.266,-407.956 137.991,-418.409 144.133,-415.052"/>
<text text-anchor="middle" x="167.5" y="-430.3" font-family="Times New Roman,serif" font-size="14.00">uses</text>
</g>
<!-- n3 -->
<g id="node3" class="node"><title>n3</title>
<polygon fill="#00008b" stroke="black" points="279,-408 223,-408 223,-372 279,-372 279,-408"/>
<text text-anchor="middle" x="251" y="-386.3" font-family="Times New Roman,serif" font-size="14.00" fill="white">Human</text>
</g>
<!-- n1&#45;&gt;n3 -->
<g id="edge2" class="edge"><title>n1&#45;&gt;n3</title>
<path fill="none" stroke="#00cd00" d="M188.846,-460.418C200.203,-447.734 216.044,-430.042 228.891,-415.694"/>
<polygon fill="#00cd00" stroke="#00cd00" points="231.609,-417.904 235.672,-408.119 226.394,-413.235 231.609,-417.904"/>
<text text-anchor="middle" x="229.5" y="-430.3" font-family="Times New Roman,serif" font-size="14.00">is a</text>
</g>
<!-- n5 -->
<g id="node5" class="node"><title>n5</title>
<polygon fill="#00008b" stroke="black" points="238.25,-36 145.75,-36 145.75,-0 238.25,-0 238.25,-36"/>
<text text-anchor="middle" x="192" y="-14.3" font-family="Times New Roman,serif" font-size="14.00" fill="white">Plugin and AI</text>
</g>
<!-- n2&#45;&gt;n5 -->
<g id="edge4" class="edge"><title>n2&#45;&gt;n5</title>
<path fill="none" stroke="#00cd00" d="M86.8164,-374.847C49.6094,-358.87 0,-328.951 0,-283 0,-283 0,-283 0,-105 0,-45.1713 78.6093,-26.6964 135.23,-21.1491"/>
<polygon fill="#00cd00" stroke="#00cd00" points="135.862,-24.6075 145.522,-20.2567 135.257,-17.6337 135.862,-24.6075"/>
<text text-anchor="middle" x="9.5" y="-190.3" font-family="Times New Roman,serif" font-size="14.00">is a</text>
</g>
<!-- n9 -->
<g id="node9" class="node"><title>n9</title>
<ellipse fill="blue" stroke="black" cx="103" cy="-282" rx="74.6146" ry="18"/>
<text text-anchor="middle" x="103" y="-278.3" font-family="Times New Roman,serif" font-size="14.00" fill="white">KnowledgeGraph</text>
</g>
<!-- n2&#45;&gt;n9 -->
<g id="edge11" class="edge"><title>n2&#45;&gt;n9</title>
<path fill="none" stroke="#00cd00" d="M123.144,-371.969C119.348,-355.202 113.492,-329.341 109.071,-309.814"/>
<polygon fill="#00cd00" stroke="#00cd00" points="112.468,-308.969 106.846,-299.988 105.641,-310.515 112.468,-308.969"/>
<text text-anchor="middle" x="131.5" y="-332.3" font-family="Times New Roman,serif" font-size="14.00">uses</text>
</g>
<!-- n10 -->
<g id="node10" class="node"><title>n10</title>
<ellipse fill="blue" stroke="black" cx="283" cy="-282" rx="87.1385" ry="18"/>
<text text-anchor="middle" x="283" y="-278.3" font-family="Times New Roman,serif" font-size="14.00" fill="white">ComputationalModel</text>
</g>
<!-- n2&#45;&gt;n10 -->
<g id="edge12" class="edge"><title>n2&#45;&gt;n10</title>
<path fill="none" stroke="#00cd00" d="M150.693,-372.901C177.302,-354.82 220.651,-325.366 250.433,-305.129"/>
<polygon fill="#00cd00" stroke="#00cd00" points="252.523,-307.941 258.827,-299.425 248.589,-302.151 252.523,-307.941"/>
<text text-anchor="middle" x="241.5" y="-332.3" font-family="Times New Roman,serif" font-size="14.00">uses</text>
</g>
<!-- n4 -->
<g id="node4" class="node"><title>n4</title>
<polygon fill="#00008b" stroke="black" points="316,-496 262,-496 262,-460 316,-460 316,-496"/>
<text text-anchor="middle" x="289" y="-474.3" font-family="Times New Roman,serif" font-size="14.00" fill="white">Agent</text>
</g>
<!-- n4&#45;&gt;n3 -->
<g id="edge3" class="edge"><title>n4&#45;&gt;n3</title>
<path fill="none" stroke="blue" stroke-dasharray="5,2" d="M281.31,-459.597C275.97,-447.511 268.756,-431.184 262.705,-417.491"/>
<polygon fill="blue" stroke="blue" points="265.792,-415.816 258.549,-408.084 259.389,-418.645 265.792,-415.816"/>
<text text-anchor="middle" x="300" y="-430.3" font-family="Times New Roman,serif" font-size="14.00">subClass</text>
</g>
<!-- n8 -->
<g id="node8" class="node"><title>n8</title>
<polygon fill="#00008b" stroke="black" points="417,-354 363,-354 363,-318 417,-318 417,-354"/>
<text text-anchor="middle" x="390" y="-332.3" font-family="Times New Roman,serif" font-size="14.00" fill="white">AI</text>
</g>
<!-- n4&#45;&gt;n8 -->
<g id="edge8" class="edge"><title>n4&#45;&gt;n8</title>
<path fill="none" stroke="blue" stroke-dasharray="5,2" d="M312.01,-459.759C318.261,-454.461 324.747,-448.343 330,-442 350.181,-417.631 367.394,-385.567 378.14,-363.312"/>
<polygon fill="blue" stroke="blue" points="381.369,-364.67 382.474,-354.133 375.039,-361.681 381.369,-364.67"/>
<text text-anchor="middle" x="367" y="-430.3" font-family="Times New Roman,serif" font-size="14.00">subClass</text>
</g>
<!-- n6 -->
<g id="node6" class="node"><title>n6</title>
<polygon fill="#00008b" stroke="black" points="219,-124 165,-124 165,-88 219,-88 219,-124"/>
<text text-anchor="middle" x="192" y="-102.3" font-family="Times New Roman,serif" font-size="14.00" fill="white">Plugin</text>
</g>
<!-- n6&#45;&gt;n5 -->
<g id="edge5" class="edge"><title>n6&#45;&gt;n5</title>
<path fill="none" stroke="black" d="M192,-87.5966C192,-75.7459 192,-59.8169 192,-46.2917"/>
<polygon fill="black" stroke="black" points="195.5,-46.084 192,-36.084 188.5,-46.084 195.5,-46.084"/>
<text text-anchor="middle" x="218" y="-58.3" font-family="Times New Roman,serif" font-size="14.00">subClass</text>
</g>
<!-- n7 -->
<g id="node7" class="node"><title>n7</title>
<polygon fill="#00008b" stroke="black" points="225.25,-212 158.75,-212 158.75,-176 225.25,-176 225.25,-212"/>
<text text-anchor="middle" x="192" y="-190.3" font-family="Times New Roman,serif" font-size="14.00" fill="white">Software</text>
</g>
<!-- n7&#45;&gt;n6 -->
<g id="edge6" class="edge"><title>n7&#45;&gt;n6</title>
<path fill="none" stroke="blue" stroke-dasharray="5,2" d="M192,-175.597C192,-163.746 192,-147.817 192,-134.292"/>
<polygon fill="blue" stroke="blue" points="195.5,-134.084 192,-124.084 188.5,-134.084 195.5,-134.084"/>
<text text-anchor="middle" x="218" y="-146.3" font-family="Times New Roman,serif" font-size="14.00">subClass</text>
</g>
<!-- n8&#45;&gt;n5 -->
<g id="edge7" class="edge"><title>n8&#45;&gt;n5</title>
<path fill="none" stroke="black" d="M392.314,-317.693C394.677,-298.499 398,-266.595 398,-239 398,-239 398,-239 398,-105 398,-40.0628 309.751,-23.2889 248.774,-19.4495"/>
<polygon fill="black" stroke="black" points="248.658,-15.9385 238.487,-18.9062 248.289,-22.9288 248.658,-15.9385"/>
<text text-anchor="middle" x="424" y="-190.3" font-family="Times New Roman,serif" font-size="14.00">subClass</text>
</g>
<!-- n9&#45;&gt;n7 -->
<g id="edge9" class="edge"><title>n9&#45;&gt;n7</title>
<path fill="none" stroke="black" d="M120.16,-264.418C133.409,-251.616 151.936,-233.714 166.857,-219.296"/>
<polygon fill="black" stroke="black" points="169.524,-221.585 174.283,-212.119 164.66,-216.551 169.524,-221.585"/>
<text text-anchor="middle" x="165.5" y="-234.3" font-family="Times New Roman,serif" font-size="14.00">is a</text>
</g>
<!-- n10&#45;&gt;n7 -->
<g id="edge10" class="edge"><title>n10&#45;&gt;n7</title>
<path fill="none" stroke="black" d="M265.021,-264.009C251.524,-251.254 232.851,-233.607 217.767,-219.351"/>
<polygon fill="black" stroke="black" points="219.925,-216.575 210.253,-212.25 215.117,-221.662 219.925,-216.575"/>
<text text-anchor="middle" x="255.5" y="-234.3" font-family="Times New Roman,serif" font-size="14.00">is a</text>
</g>
</g>
</svg>
